<svg xmlns="http://www.w3.org/2000/svg" version="1.1" xmlns:xlink="http://www.w3.org/1999/xlink" xmlns:svgjs="http://svgjs.dev/svgjs" width="200" height="40" viewBox="0 0 2000 469"><g transform="matrix(1,0,0,1,-1.2121212121212466,-1.0379130856850907)"><svg viewBox="0 0 396 93" data-background-color="#000000" preserveAspectRatio="xMidYMid meet" height="469" width="2000" xmlns="http://www.w3.org/2000/svg" xmlns:xlink="http://www.w3.org/1999/xlink"><g id="tight-bounds" transform="matrix(1,0,0,1,0.2400000000000091,0.20581218969874726)"><svg viewBox="0 0 395.52 92.58837562060248" height="92.58837562060248" width="395.52"><g><svg viewBox="0 0 395.52000000000004 92.58837562060249" height="92.58837562060248" width="395.52"><g><svg viewBox="0 0 395.52000000000004 92.58837562060249" height="92.58837562060249" width="395.52000000000004"><g id="textblocktransform"><svg viewBox="0 0 395.52000000000004 92.58837562060249" height="92.58837562060249" width="395.52000000000004" id="textblock"><g><svg viewBox="0 0 395.52000000000004 92.58837562060249" height="92.58837562060249" width="395.52000000000004"><g transform="matrix(1,0,0,1,0,0)"><svg width="395.52000000000004" viewBox="1.005555444455 -40 172.78444455554498 40.45" height="92.58837562060249" data-palette-color="url(#66821f64-0587-42a3-bc40-e583bec8ffc4)"></svg></g></svg></g></svg></g></svg></g></svg></g><defs></defs><mask id="1e3e3c81-92a3-4d03-90b1-9cfe39c5405c"><g id="SvgjsG1364"><svg viewBox="0 0 395.52 92.58837562060248" height="92.58837562060248" width="395.52"><g><svg viewBox="0 0 395.52000000000004 92.58837562060249" height="92.58837562060248" width="395.52"><g><svg viewBox="0 0 395.52000000000004 92.58837562060249" height="92.58837562060249" width="395.52000000000004"><g id="SvgjsG1363"><svg viewBox="0 0 395.52000000000004 92.58837562060249" height="92.58837562060249" width="395.52000000000004" id="SvgjsSvg1362"><g><svg viewBox="0 0 395.52000000000004 92.58837562060249" height="92.58837562060249" width="395.52000000000004"><g transform="matrix(1,0,0,1,0,0)"><svg width="395.52000000000004" viewBox="1.005555444455 -40 172.78444455554498 40.45" height="92.58837562060249" data-palette-color="url(#66821f64-0587-42a3-bc40-e583bec8ffc4)"><path d="M15.75 0.25L15.75 0.25Q14.75 0.25 13.63-0.08 12.5-0.4 12-1.3L12-1.3Q10.85-5.2 9.6-9.3 8.35-13.4 7.1-17.35L7.1-17.35Q5.7-22 4.1-27.03 2.5-32.05 1.1-36.65L1.1-36.65Q0.8-37.75 1.45-38.58 2.1-39.4 3.3-39.8L3.3-39.8Q4.05-40 4.6-40L4.6-40Q6.3-40 6.8-38.3L6.8-38.3 10.5-26.45Q11-24.65 11.68-22.5 12.35-20.35 13.05-18.1 13.75-15.85 14.45-13.63 15.15-11.4 15.75-9.5L15.75-9.5Q16.7-12.65 17.82-16.32 18.95-20 20.13-23.8 21.3-27.6 22.45-31.33 23.6-35.05 24.6-38.3L24.6-38.3Q25.15-40 26.75-40L26.75-40Q27.35-40 28.15-39.8L28.15-39.8Q30.9-39.05 30.3-36.65L30.3-36.65Q27.6-27.9 24.85-19 22.1-10.1 19.4-1.3L19.4-1.3Q19-0.3 17.93-0.03 16.85 0.25 15.75 0.25ZM59.2-1.2L48.2-34.8 37.25-1.2 37.25-1.25Q36.95-0.5 36.42-0.03 35.9 0.45 35.15 0.45L35.15 0.45Q34.75 0.45 34.37 0.38 34 0.3 33.6 0.2L33.6 0.2 33.65 0.2Q30.8-0.7 31.55-3L31.55-3 42.95-37.65Q43.2-38.45 43.82-39 44.45-39.55 45.3-39.65L45.3-39.65Q46.15-39.8 46.95-39.88 47.75-39.95 48.2-39.95L48.2-39.95Q48.65-39.95 49.45-39.88 50.25-39.8 51.1-39.7L51.1-39.7Q51.8-39.6 52.47-38.95 53.15-38.3 53.5-37.65L53.5-37.65Q56.3-29.05 59.17-20.33 62.05-11.6 64.85-3L64.85-3Q65.55-0.7 62.75 0.2L62.75 0.2Q62.35 0.3 62.02 0.38 61.7 0.45 61.3 0.45L61.3 0.45Q60.6 0.45 60.02-0.03 59.45-0.5 59.2-1.25L59.2-1.25 59.2-1.2ZM51.95-12L51.95-12Q51.95-10.4 50.82-9.28 49.7-8.15 48.1-8.15L48.1-8.15Q46.5-8.15 45.4-9.28 44.3-10.4 44.3-12L44.3-12Q44.3-13.6 45.4-14.73 46.5-15.85 48.1-15.85L48.1-15.85Q49.7-15.85 50.82-14.73 51.95-13.6 51.95-12ZM100-39.95L100-39.95Q101.59-39.95 103.5-39.2L103.5-39.2Q105.25-38.5 105.25-36.55L105.25-36.55 105.25-2.1Q105.25 0.3 102.3 0.3L102.3 0.3Q99.34 0.3 99.34-2.1L99.34-2.1 99.34-27.8 97.9-27.95 95.89-21.45 89.89-1.45Q89.34 0.3 87.19 0.25L87.19 0.25Q86.25 0.2 85.55-0.25 84.84-0.7 84.59-1.55L84.59-1.55 81-13.2Q79.89-16.65 78.8-20.23 77.69-23.8 76.39-28.15L76.39-28.15 74.94-27.95 74.94-2.1Q74.94 0.3 72 0.3L72 0.3Q69.05 0.3 69.05-2.1L69.05-2.1 69.05-36.55Q69.05-38.45 70.8-39.2L70.8-39.2Q72.64-39.95 74.34-39.9L74.34-39.9Q75.09-39.9 75.89-39.7 76.69-39.5 77.39-39.13 78.09-38.75 78.64-38.18 79.19-37.6 79.5-36.85L79.5-36.85 87.34-10.1Q88.19-13.05 89.14-16.5 90.09-19.95 91.09-23.5 92.09-27.05 93.07-30.53 94.05-34 94.89-37L94.89-37Q95.19-37.7 95.75-38.25 96.3-38.8 97-39.18 97.69-39.55 98.47-39.75 99.25-39.95 100-39.95ZM120.29-39.7L131.19-39.7Q132.49-39.7 133.89-39.15 135.29-38.6 136.59-37.75L136.59-37.75 136.54-37.75Q137.84-36.8 138.54-35.27 139.24-33.75 139.24-31.75L139.24-31.75 139.24-8Q139.24-3.95 136.54-1.95L136.54-1.95Q135.24-1 133.87-0.48 132.49 0.05 131.19 0.05L131.19 0.05 120.29 0.05Q118.99 0.05 117.62-0.48 116.24-1 114.94-1.95L114.94-1.95Q113.64-2.95 112.94-4.42 112.24-5.9 112.24-8L112.24-8 112.24-31.75Q112.24-33.75 112.94-35.27 113.64-36.8 114.94-37.75L114.94-37.75 114.89-37.75Q116.19-38.6 117.59-39.15 118.99-39.7 120.29-39.7L120.29-39.7ZM121.54-5L129.94-5Q131.79-5 132.54-6.05 133.29-7.1 133.29-8.4L133.29-8.4 133.29-31.3Q133.29-32.55 132.54-33.6 131.79-34.65 129.94-34.65L129.94-34.65 121.54-34.65Q119.69-34.65 118.94-33.6 118.19-32.55 118.19-31.3L118.19-31.3 118.19-8.4Q118.19-7.1 118.94-6.05 119.69-5 121.54-5L121.54-5ZM156.09-22.85L165.74-22.85Q167.04-22.85 168.44-22.3 169.84-21.75 171.14-20.85L171.14-20.85 171.09-20.85Q172.39-19.95 173.09-18.4 173.79-16.85 173.79-14.85L173.79-14.85 173.79-8Q173.79-3.95 171.09-1.95L171.09-1.95Q169.79-1 168.42-0.48 167.04 0.05 165.74 0.05L165.74 0.05 154.84 0.05Q153.54 0.05 152.17-0.48 150.79-1 149.49-1.95L149.49-1.95Q146.79-3.95 146.79-8L146.79-8 146.79-11.3Q146.79-13.65 149.74-13.65L149.74-13.65Q152.74-13.65 152.74-11.3L152.74-11.3 152.74-8.4Q152.74-7.1 153.49-6.05 154.24-5 156.09-5L156.09-5 164.49-5Q166.34-5 167.09-6.05 167.84-7.1 167.84-8.4L167.84-8.4 167.84-14.45Q167.84-15.7 167.09-16.78 166.34-17.85 164.49-17.85L164.49-17.85 154.84-17.85Q152.24-17.85 149.49-19.75L149.49-19.75Q146.79-21.85 146.79-25.8L146.79-25.8 146.79-31.75Q146.79-33.75 147.49-35.27 148.19-36.8 149.49-37.75L149.49-37.75 149.44-37.75Q150.74-38.6 152.14-39.15 153.54-39.7 154.84-39.7L154.84-39.7 165.74-39.7Q167.04-39.7 168.44-39.15 169.84-38.6 171.14-37.75L171.14-37.75 171.09-37.75Q172.39-36.8 173.09-35.27 173.79-33.75 173.79-31.75L173.79-31.75 173.79-28.8Q173.79-26.45 170.79-26.45L170.79-26.45Q167.84-26.45 167.84-28.8L167.84-28.8 167.84-31.3Q167.84-32.55 167.09-33.6 166.34-34.65 164.49-34.65L164.49-34.65 156.09-34.65Q154.24-34.65 153.49-33.6 152.74-32.55 152.74-31.3L152.74-31.3 152.74-26.2Q152.74-24.9 153.49-23.88 154.24-22.85 156.09-22.85L156.09-22.85Z" opacity="1" transform="matrix(1,0,0,1,0,0)" fill="white" class="wordmark-text-0" id="SvgjsPath1361"></path></svg></g></svg></g></svg></g></svg></g></svg></g><defs><mask></mask></defs></svg><rect width="395.52" height="92.58837562060248" fill="black" stroke="none" visibility="hidden"></rect></g></mask><linearGradient x1="0" x2="1" y1="0.578" y2="0.595" id="66821f64-0587-42a3-bc40-e583bec8ffc4"><stop stop-color="#dede50" offset="0"></stop><stop stop-color="#559c49" offset="1"></stop></linearGradient><rect width="395.52" height="92.58837562060248" fill="url(#66821f64-0587-42a3-bc40-e583bec8ffc4)" mask="url(#1e3e3c81-92a3-4d03-90b1-9cfe39c5405c)" data-fill-palette-color="primary"></rect></svg><rect width="395.52" height="92.58837562060248" fill="none" stroke="none" visibility="hidden"></rect></g></svg></g></svg>